<svg width="56" height="56" viewBox="0 0 56 56" fill="none" xmlns="http://www.w3.org/2000/svg">
<rect x="4" y="4" width="48" height="48" rx="24" fill="#F4EBFF"/>
<path d="M21.0003 38H35.0003M18.5003 24H37.5003M26.0003 18L24.0003 24L28.0003 34.5L32.0003 24L30.0003 18M28.5923 34.3489L37.5319 24.5153C37.6979 24.3326 37.781 24.2413 37.814 24.1373C37.8432 24.0457 37.8453 23.9476 37.8201 23.8548C37.7916 23.7495 37.7125 23.6546 37.5545 23.465L33.2402 18.2879C33.152 18.182 33.108 18.1291 33.0539 18.0911C33.006 18.0574 32.9526 18.0324 32.896 18.0172C32.8322 18 32.7634 18 32.6256 18H23.375C23.2373 18 23.1684 18 23.1046 18.0172C23.0481 18.0324 22.9946 18.0574 22.9468 18.0911C22.8927 18.1291 22.8486 18.182 22.7605 18.2879L18.4462 23.465C18.2881 23.6546 18.2091 23.7495 18.1805 23.8548C18.1554 23.9476 18.1575 24.0457 18.1866 24.1373C18.2197 24.2413 18.3027 24.3326 18.4688 24.5153L27.4084 34.3489C27.6136 34.5746 27.7162 34.6875 27.8368 34.7292C27.9427 34.7659 28.0579 34.7659 28.1639 34.7292C28.2845 34.6875 28.3871 34.5746 28.5923 34.3489Z" stroke="#7F56D9" stroke-width="2" stroke-linecap="round" stroke-linejoin="round"/>
<rect x="4" y="4" width="48" height="48" rx="24" stroke="#FCFCFC" stroke-width="8"/>
</svg>
