<svg width="56" height="56" viewBox="0 0 56 56" fill="none" xmlns="http://www.w3.org/2000/svg">
<rect x="4" y="4" width="48" height="48" rx="24" fill="#F4EBFF"/>
<path d="M25 33.5H19.5M22.5 28H18M25 22.5H20M33 19L26.4036 28.235C26.1116 28.6438 25.9656 28.8481 25.9719 29.0185C25.9774 29.1669 26.0486 29.3051 26.1661 29.3958C26.3011 29.5 26.5522 29.5 27.0546 29.5H32L31 37L37.5964 27.765C37.8884 27.3562 38.0344 27.1519 38.0281 26.9815C38.0226 26.8331 37.9514 26.6949 37.8339 26.6042C37.6989 26.5 37.4478 26.5 36.9454 26.5H32L33 19Z" stroke="#7F56D9" stroke-width="2" stroke-linecap="round" stroke-linejoin="round"/>
<rect x="4" y="4" width="48" height="48" rx="24" stroke="#F9F5FF" stroke-width="8"/>
</svg>
