<svg width="56" height="56" viewBox="0 0 56 56" fill="none" xmlns="http://www.w3.org/2000/svg">
<rect x="4" y="4" width="48" height="48" rx="24" fill="#F4EBFF"/>
<path d="M28 32V28M28 24H28.01M23.8 37H32.2C33.8802 37 34.7202 37 35.362 36.673C35.9265 36.3854 36.3854 35.9265 36.673 35.362C37 34.7202 37 33.8802 37 32.2V23.8C37 22.1198 37 21.2798 36.673 20.638C36.3854 20.0735 35.9265 19.6146 35.362 19.327C34.7202 19 33.8802 19 32.2 19H23.8C22.1198 19 21.2798 19 20.638 19.327C20.0735 19.6146 19.6146 20.0735 19.327 20.638C19 21.2798 19 22.1198 19 23.8V32.2C19 33.8802 19 34.7202 19.327 35.362C19.6146 35.9265 20.0735 36.3854 20.638 36.673C21.2798 37 22.1198 37 23.8 37Z" stroke="#7F56D9" stroke-width="2" stroke-linecap="round" stroke-linejoin="round"/>
<rect x="4" y="4" width="48" height="48" rx="24" stroke="#FCFCFC" stroke-width="8"/>
</svg>
